<?xml version="1.0" encoding="UTF-8" standalone="no"?>
<svg
   fill="#000000"
   viewBox="0 0 50.00354 50.251971"
   width="500.0354"
   height="502.51971"
   version="1.1"
   id="svg42"
   sodipodi:docname="primevideo.svg"
   inkscape:version="1.2.2 (b0a8486541, 2022-12-01)"
   xmlns:inkscape="http://www.inkscape.org/namespaces/inkscape"
   xmlns:sodipodi="http://sodipodi.sourceforge.net/DTD/sodipodi-0.dtd"
   xmlns="http://www.w3.org/2000/svg"
   xmlns:svg="http://www.w3.org/2000/svg">
  <defs
     id="defs46">
    <linearGradient
       id="linearGradient1297"
       inkscape:swatch="solid">
      <stop
         style="stop-color:#000000;stop-opacity:1;"
         offset="0"
         id="stop1295" />
    </linearGradient>
    <linearGradient
       id="linearGradient1237">
      <stop
         style="stop-color:#000000;stop-opacity:1;"
         offset="0"
         id="stop1235" />
    </linearGradient>
  </defs>
  <sodipodi:namedview
     id="namedview44"
     pagecolor="#ffffff"
     bordercolor="#666666"
     borderopacity="1.0"
     inkscape:pageshadow="2"
     inkscape:pageopacity="0.0"
     inkscape:pagecheckerboard="0"
     showgrid="false"
     inkscape:zoom="0.829"
     inkscape:cx="162.8468"
     inkscape:cy="256.33293"
     inkscape:window-width="1366"
     inkscape:window-height="717"
     inkscape:window-x="0"
     inkscape:window-y="27"
     inkscape:window-maximized="1"
     inkscape:current-layer="layer1"
     inkscape:showpageshadow="2"
     inkscape:deskcolor="#d1d1d1" />
  <g
     inkscape:groupmode="layer"
     id="layer1"
     inkscape:label="Layer 1"
     style="display:inline"
     transform="translate(-0.06685707,-0.07506847)">
    <rect
       style="display:inline;opacity:1;mix-blend-mode:normal;fill:#1a98ff;fill-opacity:1;stroke:#198ee7;stroke-width:0.32054;stroke-linejoin:round;stroke-miterlimit:4;stroke-dasharray:none;stroke-dashoffset:0;stroke-opacity:1;paint-order:normal"
       id="rect1385-3"
       width="49.682999"
       height="49.931431"
       x="0.22712708"
       y="0.23533848"
       ry="8.2654219"
       sodipodi:insensitive="true" />
  </g>
  <g
     inkscape:groupmode="layer"
     id="layer2"
     inkscape:label="Layer 2"
     style="display:inline"
     transform="translate(-0.06685707,-0.07506847)">
    <path
       d="m 30.462189,13.171122 c 0.205001,-0.121828 0.417155,-0.251935 0.638843,-0.365484 0.573291,-0.292151 1.212135,-0.438817 1.859322,-0.406883 0.467214,0.02484 0.892712,0.154947 1.220477,0.495593 0.311079,0.31699 0.425498,0.707313 0.458871,1.129572 0.0084,0.08989 0.0084,0.178602 0.0084,0.276774 v 4.209576 c 0,0.365484 -0.04886,0.413979 -0.417156,0.413979 h -0.998788 c -0.06556,0 -0.131106,0 -0.196659,-0.0083 -0.09774,-0.0083 -0.179974,-0.08989 -0.19666,-0.186882 -0.01668,-0.08989 -0.01668,-0.178603 -0.01668,-0.268495 v -3.763661 c 0.0084,-0.154947 -0.0084,-0.300431 -0.04886,-0.447098 -0.06556,-0.251935 -0.294393,-0.430538 -0.556604,-0.447097 -0.482709,-0.03194 -0.96661,0.06506 -1.408794,0.268495 -0.06556,0.01655 -0.106072,0.08161 -0.09774,0.146667 v 4.27463 c 0,0.08161 0,0.154946 -0.01668,0.235376 0,0.113548 -0.09059,0.195162 -0.205002,0.195162 v 0 c -0.122762,0.0083 -0.245526,0.0083 -0.376632,0.0083 H 29.24412 c -0.302736,0 -0.368289,-0.07333 -0.368289,-0.373765 V 14.71349 c 0,-0.138387 -0.0084,-0.285054 -0.04053,-0.422258 -0.05721,-0.276775 -0.294393,-0.471937 -0.573292,-0.487313 -0.491051,-0.03194 -0.990446,0.06506 -1.433822,0.276774 -0.06556,0.01656 -0.106072,0.08989 -0.09059,0.154947 v 4.332586 c 0,0.300431 -0.06556,0.365485 -0.368289,0.365485 h -1.097714 c -0.287241,0 -0.359945,-0.08161 -0.359945,-0.357205 v -5.64076 c 0,-0.06506 0.0084,-0.130108 0.02503,-0.195162 0.03218,-0.09699 0.131105,-0.154946 0.228839,-0.154946 h 1.023818 c 0.147794,0 0.237184,0.08989 0.287242,0.227097 0.04053,0.113549 0.06556,0.22 0.106072,0.341828 0.08224,0 0.131106,-0.05677 0.188315,-0.08989 0.450528,-0.276775 0.924893,-0.512152 1.45766,-0.609141 0.410004,-0.08161 0.818817,-0.08161 1.228821,0 0.384975,0.08161 0.729426,0.30871 0.949923,0.633979 0.01668,0.02484 0.03218,0.04022 0.04886,0.05677 -0.01077,0.0083 -0.0024,0.0083 0.006,0.02484 z"
       id="path4"
       style="fill:#000000;fill-opacity:1;stroke-width:1.18733" />
    <path
       d="m 18.35753,13.479832 c 0.05721,-0.01656 0.106072,-0.04849 0.13945,-0.09699 0.147792,-0.146667 0.302735,-0.285054 0.467214,-0.413979 0.425498,-0.325269 0.958265,-0.487313 1.491033,-0.447097 0.213345,0.0083 0.28724,0.07333 0.302735,0.276774 0.01668,0.276774 0.0084,0.560646 0.0084,0.837421 0.0084,0.113548 0,0.22 -0.01668,0.333548 -0.03218,0.146668 -0.09059,0.203441 -0.237183,0.220001 -0.11442,0.0083 -0.221689,0 -0.336108,-0.0083 -0.548261,-0.04849 -1.081028,0.05677 -1.597109,0.227098 -0.11442,0.04022 -0.11442,0.121828 -0.11442,0.21172 v 3.900865 c 0,0.07333 0,0.138388 -0.0084,0.211722 -0.0084,0.105264 -0.09059,0.186881 -0.196659,0.186881 -0.05721,0.0083 -0.122762,0.0083 -0.179973,0.0083 h -1.065534 c -0.05721,0 -0.122762,0 -0.179973,-0.0083 -0.106072,-0.0083 -0.188315,-0.09699 -0.196659,-0.203441 -0.0084,-0.06506 -0.0084,-0.130108 -0.0084,-0.195162 v -5.527211 c 0,-0.373764 0.04053,-0.413979 0.417156,-0.413979 h 0.786636 c 0.213345,0 0.311079,0.07333 0.368288,0.276774 0.05841,0.201076 0.107269,0.404517 0.156136,0.623334 z"
       id="path6"
       style="fill:#000000;fill-opacity:1;stroke-width:1.18733" />
    <path
       d="m 21.551749,15.738976 v -2.884844 c 0.0084,-0.19516 0.08224,-0.268494 0.278898,-0.276774 0.425499,-0.0083 0.852189,-0.0083 1.277687,0 0.188317,0 0.245526,0.05677 0.262212,0.243657 0.0084,0.07333 0.0084,0.138387 0.0084,0.21172 v 5.41248 c 0,0.08989 -0.0084,0.178603 -0.01668,0.268495 -0.0084,0.105275 -0.09059,0.178603 -0.196659,0.186882 -0.04886,0.0083 -0.09059,0.0083 -0.13945,0.0083 h -1.138238 c -0.04053,0 -0.07389,0 -0.114419,-0.0083 -0.11442,-0.0083 -0.213345,-0.09699 -0.221689,-0.211721 -0.0084,-0.06506 -0.0084,-0.130107 -0.0084,-0.19516 0.0084,-0.901292 0.0084,-1.827422 0.0084,-2.754735 z"
       id="path8"
       style="fill:#000000;fill-opacity:1;stroke-width:1.18733" />
    <path
       d="m 22.501672,9.6676769 c 0.131106,-0.00829 0.262212,0.016555 0.384974,0.056774 0.442185,0.1466667 0.671025,0.5287091 0.630501,1.0243021 -0.03218,0.422258 -0.351602,0.764087 -0.778293,0.829141 -0.179973,0.03194 -0.368288,0.03194 -0.548261,0 C 21.723379,11.488 21.38012,11.147356 21.412299,10.56187 21.461162,9.9846655 21.846141,9.6676758 22.501672,9.6676758 Z"
       id="path10"
       style="fill:#000000;fill-opacity:1;stroke-width:1.18733" />
    <path
       d="m 15.417181,15.07306 c -0.03218,-0.422258 -0.147792,-0.83742 -0.319422,-1.219463 -0.336109,-0.699034 -0.85219,-1.211185 -1.637633,-1.389787 -0.901057,-0.195162 -1.711529,0 -2.449298,0.544086 -0.04886,0.04849 -0.106083,0.08989 -0.171631,0.121829 -0.01668,-0.0083 -0.03218,-0.01656 -0.03218,-0.02484 -0.02503,-0.08161 -0.04053,-0.162043 -0.06556,-0.243657 -0.06556,-0.20344 -0.147792,-0.276774 -0.368288,-0.276774 -0.245526,0 -0.4993952,0.0083 -0.7449208,0 -0.1883163,-0.0083 -0.3599453,0.01656 -0.4910512,0.162043 0,2.844627 0,5.697535 0.00838,8.533882 0.1060827,0.170323 0.2705554,0.203442 0.4588706,0.195162 0.2943935,-0.0083 0.5899784,0 0.8843704,0 0.516081,0 0.516081,0 0.516081,-0.503872 v -2.315917 c 0,-0.05677 -0.02503,-0.121829 0.03218,-0.170323 0.410003,0.31699 0.909398,0.51215 1.425479,0.560645 0.721083,0.07333 1.375422,-0.105264 1.924874,-0.593764 0.401661,-0.365484 0.696054,-0.83742 0.852189,-1.357851 0.219304,-0.66355 0.234799,-1.338926 0.17759,-2.021401 z m -1.957055,1.681938 c -0.05721,0.251936 -0.188317,0.479033 -0.376632,0.650539 -0.213345,0.178602 -0.475558,0.285054 -0.753264,0.285054 -0.417155,0.02484 -0.82716,-0.06506 -1.195447,-0.260215 -0.09059,-0.04022 -0.147792,-0.130108 -0.13945,-0.227098 v -1.471399 c 0,-0.487313 0.0084,-0.975808 0,-1.463121 -0.0084,-0.113548 0.05721,-0.21172 0.163287,-0.251935 0.450528,-0.211721 0.917742,-0.308711 1.408793,-0.211721 0.344451,0.04849 0.638843,0.268495 0.778293,0.585485 0.122763,0.260215 0.196659,0.544086 0.213345,0.82914 0.04886,0.519249 0.04886,1.039679 -0.09892,1.535271 z"
       id="path12"
       style="fill:#000000;fill-opacity:1;stroke-width:1.18733" />
    <path
       d="m 37.637262,16.267685 c 0.613814,0.113549 1.244315,0.121828 1.859321,0.02484 0.359945,-0.04849 0.704396,-0.154946 1.023819,-0.325269 0.368289,-0.21172 0.638843,-0.503871 0.753263,-0.910754 0.287241,-1.024302 -0.156135,-2.056885 -1.22882,-2.437745 -0.524425,-0.170323 -1.081029,-0.227096 -1.629291,-0.154946 -1.294374,0.146666 -2.137027,0.85398 -2.522002,2.08054 -0.270555,0.83742 -0.237183,1.690217 -0.01668,2.535917 0.287241,1.081077 1.007133,1.723336 2.096504,1.950433 0.622157,0.138387 1.252658,0.113548 1.876008,0.01656 0.327765,-0.05677 0.655529,-0.138387 0.966608,-0.260215 0.188316,-0.07333 0.287241,-0.186883 0.278899,-0.398604 -0.0084,-0.19516 0,-0.398602 0,-0.600861 0,-0.243655 -0.09774,-0.316989 -0.336108,-0.260215 -0.238375,0.05677 -0.467215,0.105265 -0.704398,0.154947 -0.507737,0.105264 -1.032161,0.105264 -1.539899,0.01656 -0.696053,-0.138387 -1.146581,-0.730969 -1.106058,-1.46312 0.07271,0.0083 0.154944,0.01538 0.22884,0.03194 z m -0.205002,-1.24312 c 0.02503,-0.19516 0.08224,-0.382043 0.156135,-0.560645 0.245525,-0.593764 0.761606,-0.796023 1.286031,-0.764087 0.147792,0.0083 0.294392,0.04022 0.433841,0.09699 0.213346,0.08989 0.351603,0.285055 0.376632,0.512152 0.02503,0.138387 0.01668,0.285054 -0.02503,0.422258 -0.09774,0.292151 -0.336109,0.413979 -0.622157,0.471936 -0.171631,0.04022 -0.351603,0.05677 -0.532768,0.04022 -0.319422,0 -0.647187,-0.02484 -0.966609,-0.07333 -0.122763,-0.01538 -0.122763,-0.01538 -0.106071,-0.145484 z"
       id="path14"
       style="fill:#000000;fill-opacity:1;stroke-width:1.18733" />
    <path
       d="m 12.00485,29.7705 c 0.05244,-0.173872 0.104885,-0.340646 0.158519,-0.514517 0.404044,-1.351938 0.808089,-2.694413 1.212134,-4.04635 l 0.05244,-0.157312 c 0.0441,-0.157312 0.193084,-0.253119 0.351603,-0.253119 h 1.336089 c 0.333725,0 0.404045,0.09581 0.289625,0.410431 l -0.526807,1.386239 c -0.588785,1.517529 -1.177571,3.043336 -1.766356,4.560865 -0.01788,0.05204 -0.0441,0.104091 -0.06198,0.157313 -0.06198,0.183333 -0.245526,0.305161 -0.439801,0.287419 -0.386167,-0.0083 -0.773525,-0.0083 -1.159692,0 -0.272939,0.0083 -0.430266,-0.113548 -0.526808,-0.357205 -0.219304,-0.576022 -0.448144,-1.160324 -0.667449,-1.735163 -0.5268079,-1.369679 -1.06315,-2.738176 -1.5911495,-4.116134 -0.052443,-0.10409 -0.088203,-0.227098 -0.1144198,-0.340646 -0.026216,-0.173871 0.034563,-0.261399 0.2109617,-0.261399 0.5005865,-0.0083 1.0023647,0 1.4934156,0 0.210962,0 0.307504,0.139571 0.359946,0.322904 0.09654,0.331184 0.193084,0.671829 0.29916,1.003013 0.359945,1.212366 0.711548,2.433014 1.072685,3.645381 -0.0084,0.0083 0.0012,0.0083 0.01788,0.0083 z"
       id="path16"
       style="stroke-width:1.18733" />
    <path
       d="m 18.227616,28.200927 v 3.139145 c -0.01788,0.17387 -0.09654,0.253118 -0.272939,0.261397 -0.474365,0.0083 -0.940387,0.0083 -1.414753,0 -0.175205,0 -0.25506,-0.08752 -0.272938,-0.253118 -0.0084,-0.05204 -0.0084,-0.113549 -0.0084,-0.165592 v -6.034632 c 0.0084,-0.27086 0.07866,-0.348925 0.351603,-0.348925 h 1.265769 c 0.272939,0 0.351602,0.07807 0.351602,0.348925 v 3.0528 z"
       id="path18"
       style="stroke-width:1.18733" />
    <g
       id="g22"
       transform="matrix(1.1918726,0,0,1.1827972,-4.8446539,-4.269223)">
      <path
         d="m 18.539,21.929 c 0.147,-0.015 0.295,0.015 0.435,0.074 0.288,0.111 0.487,0.376 0.501,0.686 0.059,0.671 -0.391,1.01 -0.988,0.995 -0.081,0 -0.162,-0.015 -0.243,-0.029 -0.457,-0.111 -0.693,-0.465 -0.649,-0.973 0.037,-0.406 0.354,-0.708 0.789,-0.745 0.052,-0.008 0.104,-0.015 0.155,-0.008 z"
         id="path20" />
    </g>
    <g
       id="g26"
       transform="matrix(1.1918726,0,0,1.1827972,-4.8446539,-4.269223)">
      <path
         d="m 38.653,27.024 c 0.007,-0.084 -0.022,-0.258 -0.022,-0.265 -0.015,-0.14 -0.044,-0.28 -0.081,-0.413 -0.273,-0.973 -0.885,-1.615 -1.88,-1.865 -0.465,-0.111 -0.936,-0.125 -1.408,-0.052 -0.995,0.147 -1.711,0.678 -2.057,1.622 -0.339,0.9 -0.332,1.888 0.007,2.787 0.295,0.818 0.885,1.335 1.733,1.548 0.45,0.111 0.922,0.14 1.386,0.074 1.548,-0.184 2.19,-1.357 2.293,-2.374 0,0 0.037,-0.306 0.037,-0.446 z m -1.769,1.371 c -0.044,0.155 -0.111,0.295 -0.206,0.428 -0.162,0.229 -0.42,0.376 -0.7,0.398 -0.14,0.015 -0.28,0.015 -0.42,-0.015 -0.31,-0.059 -0.568,-0.265 -0.693,-0.553 -0.111,-0.229 -0.177,-0.479 -0.199,-0.73 -0.037,-0.435 -0.044,-0.87 0.059,-1.298 0.037,-0.17 0.111,-0.339 0.199,-0.487 0.162,-0.265 0.442,-0.435 0.752,-0.457 0.14,-0.015 0.28,-0.015 0.42,0.015 0.295,0.059 0.538,0.251 0.671,0.523 0.125,0.258 0.199,0.546 0.214,0.833 0.007,0.133 0.015,0.265 0.007,0.398 0.021,0.326 -0.016,0.643 -0.104,0.945 z"
         id="path24" />
    </g>
    <g
       id="g30"
       transform="matrix(1.1918726,0,0,1.1827972,-4.8446539,-4.269223)">
      <path
         d="m 25.728,21.981 h -1.025 c -0.28,0 -0.332,0.052 -0.332,0.332 v 2.389 c 0,0.052 0.022,0.103 -0.015,0.155 -0.066,-0.007 -0.103,-0.052 -0.155,-0.081 -0.767,-0.45 -1.57,-0.531 -2.382,-0.155 -0.568,0.265 -0.922,0.745 -1.15,1.312 -0.221,0.546 -0.273,1.121 -0.258,1.703 0,0.546 0.125,1.084 0.369,1.57 0.28,0.538 0.686,0.951 1.276,1.128 0.804,0.251 1.556,0.125 2.241,-0.383 0.052,-0.029 0.081,-0.081 0.147,-0.096 0.037,0.081 0.066,0.17 0.081,0.258 0.029,0.118 0.133,0.199 0.258,0.199 h 0.177 c 0.265,0 0.523,0.007 0.782,0 0.206,0 0.265,-0.066 0.273,-0.28 v -7.771 c -0.007,-0.229 -0.066,-0.28 -0.287,-0.28 z m -1.349,5.426 v 1.342 c 0.015,0.088 -0.037,0.17 -0.118,0.206 -0.354,0.199 -0.759,0.28 -1.158,0.221 -0.339,-0.037 -0.634,-0.243 -0.789,-0.546 -0.118,-0.236 -0.184,-0.487 -0.206,-0.745 -0.059,-0.465 -0.022,-0.936 0.088,-1.386 0.037,-0.125 0.081,-0.243 0.147,-0.361 0.155,-0.288 0.45,-0.472 0.774,-0.494 0.391,-0.037 0.782,0.037 1.135,0.199 0.088,0.029 0.14,0.118 0.133,0.214 -0.014,0.458 -0.006,0.901 -0.006,1.35 z"
         id="path28" />
    </g>
    <g
       id="g34"
       transform="matrix(1.1918726,0,0,1.1827972,-4.8446539,-4.269223)">
      <path
         d="m 30.181,27.99 c 0.428,-0.029 0.855,-0.111 1.239,-0.317 0.391,-0.192 0.664,-0.553 0.745,-0.981 0.052,-0.265 0.052,-0.546 -0.007,-0.811 -0.155,-0.664 -0.575,-1.076 -1.209,-1.29 -0.354,-0.111 -0.73,-0.155 -1.099,-0.14 -1.239,0.029 -2.182,0.656 -2.566,1.895 -0.258,0.818 -0.221,1.652 0.029,2.47 0.258,0.841 0.848,1.349 1.688,1.578 0.361,0.088 0.737,0.125 1.106,0.111 0.538,-0.007 1.076,-0.111 1.585,-0.302 0.214,-0.081 0.265,-0.155 0.265,-0.383 v -0.531 c -0.007,-0.214 -0.096,-0.288 -0.31,-0.236 -0.162,0.044 -0.317,0.081 -0.479,0.118 -0.494,0.118 -1.01,0.14 -1.512,0.052 -0.501,-0.096 -0.841,-0.383 -0.973,-0.885 -0.037,-0.147 -0.066,-0.295 -0.081,-0.45 0.037,0 0.074,0 0.103,0.015 0.488,0.087 0.982,0.124 1.476,0.087 z M 28.64,26.81 c 0.052,-0.288 0.118,-0.568 0.295,-0.804 0.273,-0.361 0.649,-0.465 1.076,-0.42 0.037,0 0.066,0.015 0.103,0.015 0.516,0.081 0.641,0.494 0.546,0.892 -0.074,0.295 -0.317,0.406 -0.59,0.457 -0.147,0.029 -0.302,0.044 -0.457,0.037 C 29.311,26.98 29.016,26.958 28.721,26.913 28.655,26.906 28.626,26.877 28.64,26.81 Z"
         id="path32" />
    </g>
    <g
       id="g40"
       style="fill:#00a9ff;fill-opacity:1"
       transform="matrix(1.1918726,0,0,1.1827972,-4.8446539,-4.269223)">
      <path
         d="m 25.386,38.496 c -0.239,-0.006 -0.479,-0.006 -0.718,0 -0.329,-0.018 -0.658,-0.03 -0.988,-0.054 -0.874,-0.066 -1.742,-0.198 -2.592,-0.395 -2.939,-0.682 -5.519,-2.053 -7.77,-4.046 -0.21,-0.186 -0.407,-0.377 -0.611,-0.569 -0.048,-0.042 -0.09,-0.102 -0.114,-0.162 -0.036,-0.084 -0.018,-0.174 0.042,-0.239 0.06,-0.065 0.156,-0.09 0.239,-0.054 0.054,0.024 0.108,0.048 0.156,0.078 2.149,1.329 4.495,2.299 6.956,2.873 0.826,0.192 1.658,0.341 2.496,0.449 1.203,0.15 2.418,0.204 3.627,0.162 0.652,-0.018 1.299,-0.078 1.945,-0.162 1.508,-0.192 2.999,-0.533 4.442,-1.012 0.76,-0.251 1.502,-0.539 2.227,-0.874 0.108,-0.06 0.239,-0.078 0.359,-0.048 0.198,0.048 0.317,0.251 0.269,0.449 -0.006,0.024 -0.018,0.054 -0.03,0.078 -0.048,0.09 -0.114,0.168 -0.198,0.227 -0.688,0.539 -1.431,1.012 -2.215,1.407 -1.479,0.748 -3.059,1.281 -4.687,1.586 -0.937,0.168 -1.883,0.27 -2.835,0.306 z"
         id="path36"
         style="fill:#000000;fill-opacity:1" />
      <path
         d="m 35.676,32.66 c 0.395,0.012 0.784,0.036 1.167,0.138 0.108,0.03 0.21,0.066 0.311,0.114 0.138,0.054 0.227,0.186 0.245,0.329 0.024,0.168 0.03,0.341 0.018,0.515 -0.078,1.024 -0.395,2.011 -0.922,2.891 -0.192,0.317 -0.425,0.605 -0.694,0.856 -0.054,0.054 -0.12,0.096 -0.192,0.12 -0.114,0.03 -0.186,-0.03 -0.192,-0.144 0.006,-0.06 0.018,-0.12 0.042,-0.18 0.21,-0.563 0.413,-1.119 0.575,-1.7 0.096,-0.317 0.162,-0.64 0.204,-0.97 0.012,-0.12 0.018,-0.239 0.006,-0.359 -0.006,-0.204 -0.138,-0.377 -0.335,-0.437 -0.186,-0.06 -0.377,-0.096 -0.575,-0.108 -0.551,-0.024 -1.101,0 -1.646,0.072 l -0.724,0.09 c -0.078,0.006 -0.15,0 -0.192,-0.072 -0.042,-0.072 -0.024,-0.144 0.018,-0.215 0.048,-0.066 0.108,-0.126 0.18,-0.168 0.443,-0.317 0.94,-0.509 1.467,-0.635 0.407,-0.084 0.82,-0.125 1.239,-0.137 z"
         id="path38"
         style="fill:#000000;fill-opacity:1" />
    </g>
    <rect
       style="fill:none;fill-opacity:1;stroke:#198ee7;stroke-width:0.32054;stroke-linejoin:round;stroke-miterlimit:4;stroke-dasharray:none;stroke-dashoffset:0;stroke-opacity:1;paint-order:normal"
       id="rect1385"
       width="49.682953"
       height="49.931431"
       x="0.22717471"
       y="0.23533848"
       ry="8.2654219" />
  </g>
</svg>
